<?xml version="1.0" encoding="UTF-8" standalone="no"?>
<svg
   xmlns:dc="http://purl.org/dc/elements/1.1/"
   xmlns:cc="http://creativecommons.org/ns#"
   xmlns:rdf="http://www.w3.org/1999/02/22-rdf-syntax-ns#"
   xmlns:svg="http://www.w3.org/2000/svg"
   xmlns="http://www.w3.org/2000/svg"
   xmlns:xlink="http://www.w3.org/1999/xlink"
   xmlns:sodipodi="http://sodipodi.sourceforge.net/DTD/sodipodi-0.dtd"
   xmlns:inkscape="http://www.inkscape.org/namespaces/inkscape"
   version="1.1"
   id="Layer_1"
   x="0px"
   y="0px"
   width="12"
   height="12"
   viewBox="0 0 15 15"
   style="enable-background:new 0 0 15 15;"
   xml:space="preserve"
   sodipodi:docname="bakery.svg"
   inkscape:version="0.92.4 (5da689c313, 2019-01-14)"><metadata
   id="metadata9"><rdf:RDF><cc:Work
       rdf:about=""><dc:format>image/svg+xml</dc:format><dc:type
         rdf:resource="http://purl.org/dc/dcmitype/StillImage" /><dc:title></dc:title></cc:Work></rdf:RDF></metadata><defs
   id="defs7"><linearGradient
     inkscape:collect="always"
     id="linearGradient4824"><stop
       style="stop-color:#ecb32d;stop-opacity:1"
       offset="0"
       id="stop4820" /><stop
       style="stop-color:#c28e09;stop-opacity:1"
       offset="1"
       id="stop4822" /></linearGradient><clipPath
     clipPathUnits="userSpaceOnUse"
     id="clipPath869"><g
       style="fill:#000000;fill-opacity:1;stroke-width:0.1260273;stroke-miterlimit:4;stroke-dasharray:none"
       id="use871"
       inkscape:label="Clip"><rect
         style="fill:#000000;fill-opacity:1;stroke:#ffffff;stroke-width:0.1260273;stroke-miterlimit:4;stroke-dasharray:none;stroke-opacity:1"
         id="rect898"
         width="7.0423493"
         height="11.619875"
         x="6.4554863"
         y="2.1281509" /></g></clipPath><clipPath
     clipPathUnits="userSpaceOnUse"
     id="clipPath882"><g
       inkscape:label="Clip"
       id="use884"><g
         style="fill:#000000;fill-opacity:1;stroke-width:0.1260273;stroke-miterlimit:4;stroke-dasharray:none"
         transform="matrix(0.95555556,0,0,1.023569,0.59990377,-0.05015844)"
         clip-path="url(#clipPath869)"
         id="g894"><g
           style="fill:#000000;fill-opacity:1;stroke-width:0.1260273;stroke-miterlimit:4;stroke-dasharray:none"
           id="g892"
           inkscape:label="Clip"><rect
             style="fill:#000000;fill-opacity:1;stroke:#ffffff;stroke-width:0.1260273;stroke-miterlimit:4;stroke-dasharray:none;stroke-opacity:1"
             id="rect890"
             width="7.0423493"
             height="11.619875"
             x="6.4554863"
             y="2.1281509" /></g></g></g></clipPath><radialGradient
     inkscape:collect="always"
     xlink:href="#linearGradient4824"
     id="radialGradient6614"
     cx="6.046875"
     cy="5.9052734"
     fx="6.046875"
     fy="5.9052734"
     r="5.0397792"
     gradientTransform="matrix(1,0,0,0.99825602,0,0.01029868)"
     gradientUnits="userSpaceOnUse" /></defs><sodipodi:namedview
   pagecolor="#ffffff"
   bordercolor="#666666"
   borderopacity="1"
   objecttolerance="10"
   gridtolerance="10"
   guidetolerance="10"
   inkscape:pageopacity="0"
   inkscape:pageshadow="2"
   inkscape:window-width="1312"
   inkscape:window-height="704"
   id="namedview5"
   showgrid="false"
   inkscape:snap-nodes="false"
   inkscape:zoom="31.949567"
   inkscape:cx="3.0567087"
   inkscape:cy="6.9975015"
   inkscape:window-x="54"
   inkscape:window-y="27"
   inkscape:window-maximized="1"
   inkscape:current-layer="Layer_1"
   inkscape:snap-bbox="false"
   inkscape:snap-global="false" />
	<path
   inkscape:connector-curvature="0"
   style="fill:#231f20;stroke-width:0.12149964"
   d="m 13.231347,15.019851 c 0.988846,0 1.789284,-0.8019 1.789284,-1.794959 V 1.7769359 c 0,-0.99306038 -0.800438,-1.79690834 -1.789284,-1.79690834 H 1.8322118 c -0.98884639,0 -1.78928283,0.80384796 -1.78928283,1.79690834 V 13.225013 c 0,0.993061 0.80043644,1.79496 1.78928283,1.79496 H 13.231347 Z"
   id="path2-3" /><path
   inkscape:connector-curvature="0"
   style="fill:#ffffff;stroke-width:0.11913925"
   d="m 1.943875,0.42324107 c -0.8033328,0 -1.45712478,0.65674253 -1.45712478,1.46370003 V 13.114014 c 0,0.806957 0.65379198,1.462744 1.45712478,1.462744 h 11.17581 c 0.804283,0 1.457125,-0.655787 1.457125,-1.462744 V 1.8870605 c 10e-7,-0.8069576 -0.652841,-1.46370011 -1.457125,-1.46370011 H 1.9433991 Z"
   id="path4" />
<path
   style="fill:url(#radialGradient6614);fill-opacity:1;stroke:#ffffff;stroke-width:0.11471429;stroke-miterlimit:4;stroke-dasharray:none;stroke-opacity:1"
   d="M 6.046875 0.93164062 A 4.9817574 2.4319681 0 0 0 1.0644531 3.3632812 A 4.9817574 2.4319681 0 0 0 1.671875 4.5214844 L 1.671875 10.132812 C 1.671875 10.544607 2.0801722 10.878906 2.5800781 10.878906 L 9.5332031 10.878906 C 10.033701 10.878906 10.441406 10.544607 10.441406 10.132812 L 10.441406 4.5058594 A 4.9817574 2.4319681 0 0 0 11.029297 3.3632812 A 4.9817574 2.4319681 0 0 0 6.046875 0.93164062 z "
   transform="scale(1.25)"
   id="path814" /></svg>