<svg xmlns="http://www.w3.org/2000/svg" viewBox="0 0 30 30"><defs><style>.cls-1{fill:#ef9235;}.cls-2{fill:#fff;}</style></defs><g id="レイヤー_2" data-name="レイヤー 2"><g id="レイヤー_1-2" data-name="レイヤー 1"><rect class="cls-1" x="0.75" y="0.75" width="28.5" height="28.5" rx="4.25"/><path class="cls-2" d="M25,1.5A3.5,3.5,0,0,1,28.5,5V25A3.5,3.5,0,0,1,25,28.5H5A3.5,3.5,0,0,1,1.5,25V5A3.5,3.5,0,0,1,5,1.5H25M25,0H5A5,5,0,0,0,0,5V25a5,5,0,0,0,5,5H25a5,5,0,0,0,5-5V5a5,5,0,0,0-5-5Z"/><path class="cls-2" d="M17.38,4.22c-.39,0-1,0-1.43,0H14.4c-5,0-8.68,2.41-8.68,5.6a4.32,4.32,0,0,0,1.21,2.92V22.89A2.09,2.09,0,0,0,9,25H22.77a2.09,2.09,0,0,0,2.09-2.08V12.74a4.32,4.32,0,0,0,1.21-2.92C26.07,6.63,22.34,4.22,17.38,4.22ZM9,23.35a.47.47,0,0,1-.46-.46V12.06l-.25-.24a2.78,2.78,0,0,1-1-2c0-2.19,3.17-4,7.06-4s7.07,1.78,7.07,4a2.78,2.78,0,0,1-1,2l-.25.24V22.89a.47.47,0,0,1-.46.46Z"/><path class="cls-2" d="M8.51,27.23a3.28,3.28,0,0,1-1.78-.49A4.23,4.23,0,0,1,5,23.44a.8.8,0,0,1,.26-.66L9.17,19.2a.75.75,0,0,1,.5-.21,3.7,3.7,0,0,1,1.59.53,2.85,2.85,0,0,1,1.11,1.32.66.66,0,0,1,0,.5l-1.53,5a.79.79,0,0,1-.42.49,5.2,5.2,0,0,1-1.93.41Z"/><path class="cls-1" d="M9.67,19.49h0a3.2,3.2,0,0,1,1.31.45A2.38,2.38,0,0,1,11.91,21a.29.29,0,0,1,0,.16l-1.54,5a.27.27,0,0,1-.15.18,4.54,4.54,0,0,1-1.72.37A2.76,2.76,0,0,1,7,26.32a3.76,3.76,0,0,1-1.46-2.93.28.28,0,0,1,.1-.24l3.87-3.59a.26.26,0,0,1,.16-.07m0-1a1.21,1.21,0,0,0-.84.34L5,22.42a1.26,1.26,0,0,0-.41,1.08,4.66,4.66,0,0,0,1.91,3.66,3.72,3.72,0,0,0,2.05.57,5.44,5.44,0,0,0,2.14-.46,1.29,1.29,0,0,0,.69-.79l1.53-5a1.19,1.19,0,0,0,0-.85,3.36,3.36,0,0,0-1.3-1.54,3.81,3.81,0,0,0-1.77-.6Z"/><path class="cls-2" d="M12.91,27.6a2.87,2.87,0,0,1-2-.79.7.7,0,0,1-.18-.72L12,21.73a1.48,1.48,0,0,1,.14-.3c.13-.33.5-.56,1.14-.69l.29,0a2.35,2.35,0,0,1,1.43.56.71.71,0,0,1,.23.33l1.2,3.83a.73.73,0,0,1-.09.62,3.87,3.87,0,0,1-2.52,1.44,5.12,5.12,0,0,1-.95.1Z"/><path class="cls-1" d="M13.61,21.22a1.85,1.85,0,0,1,1.1.44s.07.05.08.09L16,25.59a.22.22,0,0,1,0,.19A3.35,3.35,0,0,1,13.77,27a5.14,5.14,0,0,1-.87.09,2.34,2.34,0,0,1-1.67-.66.2.2,0,0,1-.05-.2l1.34-4.36a.67.67,0,0,1,.08-.18c0-.05.06-.32.81-.46a.68.68,0,0,1,.2,0m0-1a2.56,2.56,0,0,0-.39,0,1.9,1.9,0,0,0-1.5,1,1.27,1.27,0,0,0-.15.35L10.23,26a1.2,1.2,0,0,0,.32,1.23,3.35,3.35,0,0,0,2.35.92A6.15,6.15,0,0,0,14,28a4.38,4.38,0,0,0,2.84-1.65A1.25,1.25,0,0,0,17,25.28l-1.21-3.83a1.14,1.14,0,0,0-.38-.55,2.82,2.82,0,0,0-1.75-.68Z"/><path class="cls-2" d="M16.91,26a.43.43,0,0,1-.19,0,.47.47,0,0,1-.28-.3L15.17,22a.5.5,0,0,1,.47-.66h.08a5.93,5.93,0,0,0,.81.05A15,15,0,0,0,18,21.29a2.48,2.48,0,0,1,.74-.12,1.1,1.1,0,0,1,.95.43,1.19,1.19,0,0,1,.07,1A6.37,6.37,0,0,1,17.13,26,.54.54,0,0,1,16.91,26Z"/><path class="cls-1" d="M18.78,21.67c.87,0,.55.8.55.8a5.79,5.79,0,0,1-2.42,3.05l-1.27-3.7a6.23,6.23,0,0,0,.89.06,14.12,14.12,0,0,0,1.57-.1,2.6,2.6,0,0,1,.68-.11m0-1a3.21,3.21,0,0,0-.86.13c-.2,0-.8.08-1.39.08a3.44,3.44,0,0,1-.72-.05h-.17a1,1,0,0,0-.76.36,1,1,0,0,0-.18,1L16,25.84a1,1,0,0,0,.57.6.94.94,0,0,0,.82,0,6.67,6.67,0,0,0,2.91-3.57,1.66,1.66,0,0,0-.12-1.52,1.55,1.55,0,0,0-1.36-.65Z"/><path class="cls-2" d="M5,22.75a.7.7,0,0,1-.25-.05,3.15,3.15,0,0,1-1.88-2.4,3.9,3.9,0,0,1,.25-2.89.77.77,0,0,1,.53-.35l4-.52h0a.66.66,0,0,1,.36.08A2.19,2.19,0,0,1,9.27,18a1.39,1.39,0,0,1-.18,1.37.82.82,0,0,1-.17.2L5.51,22.57A.69.69,0,0,1,5,22.75Z"/><path class="cls-1" d="M7.75,17a.25.25,0,0,1,.11,0,1.69,1.69,0,0,1,.93,1c.18.75,0,.88-.09.93a.7.7,0,0,1-.12.15L5.18,22.2a.24.24,0,0,1-.14.05H5A2.65,2.65,0,0,1,3.4,20.17a3.35,3.35,0,0,1,.19-2.5.22.22,0,0,1,.16-.11l4-.52h0m0-1H7.6l-4,.51a1.27,1.27,0,0,0-.89.59,4.36,4.36,0,0,0-.3,3.27A3.61,3.61,0,0,0,4.6,23.16a1.12,1.12,0,0,0,.44.09,1.2,1.2,0,0,0,.8-.31l3.41-3a2,2,0,0,0,.25-.29,1.91,1.91,0,0,0,.26-1.78,2.69,2.69,0,0,0-1.49-1.67A1.25,1.25,0,0,0,7.75,16Z"/><path class="cls-2" d="M3.43,17.2a.51.51,0,0,1-.34-.14.53.53,0,0,1-.16-.38,6.32,6.32,0,0,1,1.89-3.81,1.26,1.26,0,0,1,.84-.39c.41,0,1,.26,1.16,1.48h0A10.39,10.39,0,0,0,7.73,16a.5.5,0,0,1,0,.5.48.48,0,0,1-.4.28Z"/><path class="cls-1" d="M5.66,13c.25,0,.52.22.66,1.06a10.89,10.89,0,0,0,1,2.25l-3.89.41a5.81,5.81,0,0,1,1.75-3.48A.77.77,0,0,1,5.66,13m0-1h0a1.71,1.71,0,0,0-1.2.55,6.78,6.78,0,0,0-2,4.14,1,1,0,0,0,.32.76,1,1,0,0,0,.68.27h.1l3.89-.4a1,1,0,0,0,.81-.57,1.05,1.05,0,0,0-.08-1A9,9,0,0,1,7.3,13.8C7,12.22,6.15,12,5.66,12Z"/></g></g></svg>