<svg enable-background="new 0 0 800 800" height="800" viewBox="0 0 800 800" width="800" xmlns="http://www.w3.org/2000/svg"><path d="m788 708c0 44-36 80-80 80h-616c-44 0-80-36-80-80v-616c0-44 36-80 80-80h616c44 0 80 36 80 80z" fill="#ff8c00"/><path d="m788 708c0 44-36 80-80 80h-616c-44 0-80-36-80-80v-616c0-44 36-80 80-80h616c44 0 80 36 80 80z" fill="none" stroke="#fff" stroke-miterlimit="10" stroke-width="24"/><g fill="#fff"><path d="m643.526 334.293c-31.394-12.098-64.756-22.169-108.175-32.656-.682-.164-1.388-.208-2.083-.129-10.017 1.134-20.299 1.709-30.561 1.709-7.599 0-15.604-.332-23.795-.986-2.369-.185-4.646 1.049-5.771 3.155-.479.896-.995 1.811-1.579 2.799-.867 1.464-1.071 3.228-.562 4.851.509 1.624 1.684 2.955 3.23 3.662 22.697 10.379 45.187 21.986 65.038 33.565 2.076 1.211 3.557 3.158 4.169 5.483.611 2.325.281 4.749-.93 6.825-1.607 2.756-4.592 4.468-7.788 4.468-1.58 0-3.143-.425-4.521-1.229-22.076-12.877-47.061-25.569-72.252-36.705-1.964-.868-4.238-.62-5.968.645-12.398 9.068-27.06 13.861-42.398 13.861-15.21 0-29.772-4.72-42.112-13.651-1.73-1.252-3.995-1.49-5.947-.625-25.036 11.089-49.844 23.702-71.741 36.475-1.378.804-2.948 1.229-4.541 1.229-3.221 0-6.22-1.712-7.827-4.468-1.22-2.092-1.562-4.526-.961-6.854.597-2.315 2.061-4.252 4.122-5.455 20.321-11.854 41.929-23.046 64.225-33.266 1.55-.71 2.725-2.047 3.23-3.676s.293-3.396-.582-4.859l-.823-1.364c-1.179-1.945-2.397-3.956-3.255-5.845-1.05-2.315-3.447-3.711-5.979-3.498-9.293.801-18.933 1.225-27.877 1.225-4.487 0-9.985-.118-14.006-.3-.557-.026-1.116.027-1.658.156-56.898 13.513-98.053 24.158-127.377 35.458-47.292 18.226-67.471 36.082-67.471 59.707v259c0 10.619 6.363 23.322 17.02 33.979 10.658 10.659 23.36 17.021 33.98 17.021h520c22.856 0 31-26.345 31-51v-259c0-23.787-9.404-41.183-57.474-59.707z"/><path d="m217.213 260.82c26.914 13.376 58.389 20.158 93.551 20.158 17.96 0 37.152-1.778 57.043-5.286 3.258-.574 6.562-1.201 9.819-1.861 2.407-.487 4.536-1.959 5.842-4.041 1.303-2.078 1.702-4.633 1.094-7.01-15.832-61.883-39.627-104.684-72.745-130.85-27.375-21.628-60.502-32.143-101.274-32.143-15.667 0-32.73 1.607-50.713 4.778-11.182 1.971-22.995 4.604-35.11 7.824-4.696 1.247-7.583 6.103-6.434 10.825 16.243 66.757 49.527 113.054 98.927 137.606z"/><path d="m694.7 112.503c-11.53-3.066-23.348-5.673-35.124-7.749-17.879-3.152-34.86-4.751-50.474-4.751-40.847 0-74.061 10.554-101.54 32.264-22.422 17.715-40.283 42.667-54.605 76.281-1.052 2.469-.337 5.336 1.752 7.021 17.078 13.781 26.873 34.208 26.873 56.041 0 2.108-.104 4.265-.316 6.594-.147 1.62.368 3.23 1.431 4.462 1.062 1.232 2.578 1.98 4.202 2.074 5.516.316 10.835.476 15.81.476 36.442 0 69.781-7.386 99.09-21.952 48.585-24.15 82.937-72.553 99.341-139.975 1.161-4.779-1.667-9.517-6.44-10.786z"/><path d="m402 258.318c1.826 7.133.629 14.801-3.284 21.039-3.913 6.237-10.296 10.653-17.513 12.115-3.427.694-6.882 1.349-10.271 1.946l-1.358.226c-2.038.351-3.75 1.727-4.534 3.641-.783 1.914-.525 4.095.681 5.774 10.151 14.121 26.547 22.552 43.861 22.552 29.775 0 54-24.224 54-54s-24.225-54-54-54c-4.197 0-8.418.5-12.545 1.486-1.639.392-3.038 1.454-3.854 2.928s-.976 3.223-.439 4.82c3.348 9.962 6.462 20.551 9.256 31.473z"/></g></svg>