<?xml version="1.0" encoding="utf-8"?>
<!-- Generator: Adobe Illustrator 15.0.2, SVG Export Plug-In . SVG Version: 6.00 Build 0)  -->
<!DOCTYPE svg PUBLIC "-//W3C//DTD SVG 1.1//EN" "http://www.w3.org/Graphics/SVG/1.1/DTD/svg11.dtd">
<svg version="1.1" id="レイヤー_1" xmlns="http://www.w3.org/2000/svg" xmlns:xlink="http://www.w3.org/1999/xlink" x="0px"
	 y="0px" width="800px" height="800px" viewBox="0 0 800 800" enable-background="new 0 0 800 800" xml:space="preserve">
<g>
	<g>
		<path fill="#FF8C00" d="M788,708c0,44-36,80-80,80H92c-44,0-80-36-80-80V92c0-44,36-80,80-80h616c44,0,80,36,80,80V708z"/>
		<path fill="none" stroke="#FFFFFF" stroke-width="24" stroke-miterlimit="10" d="M788,708c0,44-36,80-80,80H92c-44,0-80-36-80-80
			V92c0-44,36-80,80-80h616c44,0,80,36,80,80V708z"/>
	</g>
	<g>
		<path fill="#FFFFFF" d="M643.526,334.293c-31.394-12.098-64.756-22.169-108.175-32.656c-0.682-0.164-1.388-0.208-2.083-0.129
			c-10.017,1.134-20.299,1.709-30.561,1.709c-7.599,0-15.604-0.332-23.795-0.986c-2.369-0.185-4.646,1.049-5.771,3.155
			c-0.479,0.896-0.995,1.811-1.579,2.799c-0.867,1.464-1.071,3.228-0.562,4.851c0.509,1.624,1.684,2.955,3.23,3.662
			c22.697,10.379,45.187,21.986,65.038,33.565c2.076,1.211,3.557,3.158,4.169,5.483c0.611,2.325,0.281,4.749-0.93,6.825
			c-1.607,2.756-4.592,4.468-7.788,4.468c-1.58,0-3.143-0.425-4.521-1.229c-22.076-12.877-47.061-25.569-72.252-36.705
			c-1.964-0.868-4.238-0.62-5.968,0.645c-12.398,9.068-27.06,13.861-42.398,13.861c-15.21,0-29.772-4.72-42.112-13.651
			c-1.73-1.252-3.995-1.49-5.947-0.625c-25.036,11.089-49.844,23.702-71.741,36.475c-1.378,0.804-2.948,1.229-4.541,1.229
			c-3.221,0-6.22-1.712-7.827-4.468c-1.22-2.092-1.562-4.526-0.961-6.854c0.597-2.315,2.061-4.252,4.122-5.455
			c20.321-11.854,41.929-23.046,64.225-33.266c1.55-0.71,2.725-2.047,3.23-3.676s0.293-3.396-0.582-4.859l-0.823-1.364
			c-1.179-1.945-2.397-3.956-3.255-5.845c-1.05-2.315-3.447-3.711-5.979-3.498c-9.293,0.801-18.933,1.225-27.877,1.225
			c-4.487,0-9.985-0.118-14.006-0.3c-0.557-0.026-1.116,0.027-1.658,0.156c-56.898,13.513-98.053,24.158-127.377,35.458
			C119.179,352.519,99,370.375,99,394v259c0,10.619,6.363,23.322,17.02,33.979C126.678,697.638,139.38,704,150,704h520
			c22.856,0,31-26.345,31-51V394C701,370.213,691.596,352.817,643.526,334.293z"/>
		<path fill="#FFFFFF" d="M217.213,260.82c26.914,13.376,58.389,20.158,93.551,20.158c17.96,0,37.152-1.778,57.043-5.286
			c3.258-0.574,6.562-1.201,9.819-1.861c2.407-0.487,4.536-1.959,5.842-4.041c1.303-2.078,1.702-4.633,1.094-7.01
			c-15.832-61.883-39.627-104.684-72.745-130.85c-27.375-21.628-60.502-32.143-101.274-32.143c-15.667,0-32.73,1.607-50.713,4.778
			c-11.182,1.971-22.995,4.604-35.11,7.824c-4.696,1.247-7.583,6.103-6.434,10.825C134.529,189.971,167.813,236.268,217.213,260.82z
			"/>
		<path fill="#FFFFFF" d="M694.7,112.503c-11.53-3.066-23.348-5.673-35.124-7.749c-17.879-3.152-34.86-4.751-50.474-4.751
			c-40.847,0-74.061,10.554-101.54,32.264c-22.422,17.715-40.283,42.667-54.605,76.281c-1.052,2.469-0.337,5.336,1.752,7.021
			c17.078,13.781,26.873,34.208,26.873,56.041c0,2.108-0.104,4.265-0.316,6.594c-0.147,1.62,0.368,3.23,1.431,4.462
			c1.062,1.232,2.578,1.98,4.202,2.074c5.516,0.316,10.835,0.476,15.81,0.476c36.442,0,69.781-7.386,99.09-21.952
			c48.585-24.15,82.937-72.553,99.341-139.975C702.301,118.51,699.473,113.772,694.7,112.503z"/>
		<path fill="#FFFFFF" d="M402,258.318c1.826,7.133,0.629,14.801-3.284,21.039c-3.913,6.237-10.296,10.653-17.513,12.115
			c-3.427,0.694-6.882,1.349-10.271,1.946l-1.358,0.226c-2.038,0.351-3.75,1.727-4.534,3.641c-0.783,1.914-0.525,4.095,0.681,5.774
			c10.151,14.121,26.547,22.552,43.861,22.552c29.775,0,54-24.224,54-54s-24.225-54-54-54c-4.197,0-8.418,0.5-12.545,1.486
			c-1.639,0.392-3.038,1.454-3.854,2.928s-0.976,3.223-0.439,4.82C396.092,236.807,399.206,247.396,402,258.318z"/>
	</g>
</g>
</svg>
