<?xml version="1.0" encoding="UTF-8" standalone="no"?>
<svg
   xmlns:dc="http://purl.org/dc/elements/1.1/"
   xmlns:cc="http://creativecommons.org/ns#"
   xmlns:rdf="http://www.w3.org/1999/02/22-rdf-syntax-ns#"
   xmlns:svg="http://www.w3.org/2000/svg"
   xmlns="http://www.w3.org/2000/svg"
   xmlns:sodipodi="http://sodipodi.sourceforge.net/DTD/sodipodi-0.dtd"
   xmlns:inkscape="http://www.inkscape.org/namespaces/inkscape"
   version="1.1"
   id="Layer_1"
   x="0px"
   y="0px"
   width="32"
   height="32"
   viewBox="0 0 32 32"
   xml:space="preserve"
   sodipodi:docname="bookmark.svg"
   inkscape:version="1.0beta1 (32d4812, 2019-09-19)"><metadata
   id="metadata9">
  <rdf:RDF>
    <cc:Work
       rdf:about="">
      <dc:format>image/svg+xml</dc:format>
      <dc:type
         rdf:resource="http://purl.org/dc/dcmitype/StillImage" />
      <dc:title />
    </cc:Work>
  </rdf:RDF>
</metadata>
<defs
   id="defs7">
  <clipPath
     clipPathUnits="userSpaceOnUse"
     id="clipPath869">
    <g
       style="fill:#000000;fill-opacity:1;stroke-width:0.126027;stroke-miterlimit:4;stroke-dasharray:none"
       id="use871"
       inkscape:label="Clip">
      <rect
         style="fill:#000000;fill-opacity:1;stroke:#ffffff;stroke-width:0.126027;stroke-miterlimit:4;stroke-dasharray:none;stroke-opacity:1"
         id="rect898"
         width="7.0423493"
         height="11.619875"
         x="6.4554863"
         y="2.1281509" />
    </g>
  </clipPath>
  <clipPath
     clipPathUnits="userSpaceOnUse"
     id="clipPath882">
    <g
       inkscape:label="Clip"
       id="use884">
      <g
         style="fill:#000000;fill-opacity:1;stroke-width:0.126027;stroke-miterlimit:4;stroke-dasharray:none"
         transform="matrix(0.95555556,0,0,1.023569,0.59990377,-0.05015844)"
         clip-path="url(#clipPath869)"
         id="g894">
        <g
           style="fill:#000000;fill-opacity:1;stroke-width:0.126027;stroke-miterlimit:4;stroke-dasharray:none"
           id="g892"
           inkscape:label="Clip">
          <rect
             style="fill:#000000;fill-opacity:1;stroke:#ffffff;stroke-width:0.126027;stroke-miterlimit:4;stroke-dasharray:none;stroke-opacity:1"
             id="rect890"
             width="7.0423493"
             height="11.619875"
             x="6.4554863"
             y="2.1281509" />
        </g>
      </g>
    </g>
  </clipPath>
</defs>
<sodipodi:namedview
   pagecolor="#ffffff"
   bordercolor="#666666"
   borderopacity="1"
   objecttolerance="10"
   gridtolerance="10"
   guidetolerance="10"
   inkscape:pageopacity="0"
   inkscape:pageshadow="2"
   inkscape:window-width="1255"
   inkscape:window-height="755"
   id="namedview5"
   showgrid="false"
   inkscape:snap-nodes="false"
   inkscape:zoom="17.163416"
   inkscape:cx="16"
   inkscape:cy="15.935057"
   inkscape:window-x="24"
   inkscape:window-y="23"
   inkscape:window-maximized="0"
   inkscape:current-layer="Layer_1"
   inkscape:snap-bbox="false"
   inkscape:snap-global="false"
   inkscape:document-rotation="0" />

	
<path
   inkscape:label="path4"
   id="path4-5"
   d="M 3.3092818,0 C 1.4848302,0 0,1.4788176 0,3.2958784 V 28.576382 c 0,1.817086 1.4848302,3.293731 3.3092818,3.293731 H 28.690697 C 30.517335,31.870113 32,30.393467 32,28.576382 V 3.2961491 C 32.000001,1.4790841 30.517337,2.6920775e-4 28.690697,2.6920775e-4 H 3.308203 Z"
   style="display:inline;opacity:1;fill:#ffffff;fill-opacity:1;stroke:none;stroke-width:0.565371;stroke-miterlimit:4;stroke-dasharray:none"
   inkscape:connector-curvature="0" />
<path
   style="fill:#ffffff;fill-opacity:1;stroke:#ffffff;stroke-width:0.273653;stroke-miterlimit:4;stroke-dasharray:none;stroke-opacity:1"
   d="M 15.999995,4.0708507 A 11.883584,5.801264 0 0 0 4.1148267,9.8713339 11.883584,5.801264 0 0 0 5.5637817,12.634137 v 13.38536 c 0,0.982333 0.9739616,1.779765 2.1664456,1.779765 H 24.316355 c 1.193879,0 2.166435,-0.797432 2.166435,-1.779765 V 12.596871 A 11.883584,5.801264 0 0 0 27.885173,9.8713339 11.883584,5.801264 0 0 0 15.999995,4.0708507 Z"
   id="path814" />
<path
   transform="matrix(1.0646102,0,0,1.0880387,-0.74452819,-0.79624259)"
   inkscape:transform-center-y="-1.6418458"
   d="m 15.731135,1.0940027 4.644208,9.4101943 10.384767,1.508996 -7.514488,7.324814 1.77393,10.342805 -9.288418,-4.88321 -9.2884174,4.88321 L 8.2166469,19.338007 0.7021594,12.013192 11.086926,10.504197 Z"
   inkscape:randomized="0"
   inkscape:rounded="0"
   inkscape:flatsided="false"
   sodipodi:arg2="-0.9424778"
   sodipodi:arg1="-1.5707963"
   sodipodi:r2="7.9011998"
   sodipodi:r1="15.8024"
   sodipodi:cy="16.896402"
   sodipodi:cx="15.731134"
   sodipodi:sides="5"
   id="path27"
   style="fill:#ef9235;fill-opacity:1;stroke-width:1px;stop-color:#000000"
   sodipodi:type="star" />
</svg>
