<svg enable-background="new 0 0 15 15" height="12" viewBox="0 0 15 15" width="12" xmlns="http://www.w3.org/2000/svg"><path d="m13.231347 15.019851c.988846 0 1.789284-.8019 1.789284-1.794959v-11.4479561c0-.99306038-.800438-1.79690834-1.789284-1.79690834h-11.3991352c-.98884639 0-1.78928283.80384796-1.78928283 1.79690834v11.4480771c0 .993061.80043644 1.79496 1.78928283 1.79496h11.3991352z" fill="#231f20" stroke-width=".1215"/><path d="m1.943875.42324107c-.8033328 0-1.45712478.65674253-1.45712478 1.46370003v11.2270729c0 .806957.65379198 1.462744 1.45712478 1.462744h11.17581c.804283 0 1.457125-.655787 1.457125-1.462744v-11.2269535c.000001-.8069576-.652841-1.46370011-1.457125-1.46370011h-11.1762859z" fill="#fff" stroke-width=".119139"/><path d="m11.53051 4.9608758-.630654-.039124.07825-1.9608758h-8.5477402l.2738691 5.5649662c.0524242 2.2090998 2.4017624 2.3850098 3.7501309 2.4108338 1.4105-.0085 3.6120552-.054965 3.8954902-1.936676l1.180654-.039124c1.103994-.036584 2-.8954 2-2s-.89752-1.9316048-2-2zm0 3h-1.005399c.0887-.3261.1358-.7012242.14-1.0391242l.156497-.9608758h.708902c.5523 0 1 .4477 1 1s-.4477 1-1 1zm-.943647 3.7957652c0 .2761-.223901.5-.500001.5h-6.9999996c-.2761 0-.5-.2239-.5-.5s.2239-.5.5-.5h6.9999996c.2761 0 .500001.2239.500001.5z"/></svg>