<?xml version="1.0" encoding="UTF-8" standalone="no"?>
<svg
   xmlns:dc="http://purl.org/dc/elements/1.1/"
   xmlns:cc="http://creativecommons.org/ns#"
   xmlns:rdf="http://www.w3.org/1999/02/22-rdf-syntax-ns#"
   xmlns:svg="http://www.w3.org/2000/svg"
   xmlns="http://www.w3.org/2000/svg"
   xmlns:xlink="http://www.w3.org/1999/xlink"
   xmlns:sodipodi="http://sodipodi.sourceforge.net/DTD/sodipodi-0.dtd"
   xmlns:inkscape="http://www.inkscape.org/namespaces/inkscape"
   version="1.1"
   id="Layer_1"
   x="0px"
   y="0px"
   width="12"
   height="12"
   viewBox="0 0 15 15"
   style="enable-background:new 0 0 15 15;"
   xml:space="preserve"
   sodipodi:docname="confectionery.svg"
   inkscape:version="0.92.4 (5da689c313, 2019-01-14)"><metadata
   id="metadata9"><rdf:RDF><cc:Work
       rdf:about=""><dc:format>image/svg+xml</dc:format><dc:type
         rdf:resource="http://purl.org/dc/dcmitype/StillImage" /><dc:title></dc:title></cc:Work></rdf:RDF></metadata><defs
   id="defs7"><linearGradient
     inkscape:collect="always"
     id="linearGradient47"><stop
       style="stop-color:#f0fff0;stop-opacity:1"
       offset="0"
       id="stop43" /><stop
       style="stop-color:#f208ab;stop-opacity:1"
       offset="1"
       id="stop45" /></linearGradient><clipPath
     clipPathUnits="userSpaceOnUse"
     id="clipPath869"><g
       style="fill:#000000;fill-opacity:1;stroke-width:0.1260273;stroke-miterlimit:4;stroke-dasharray:none"
       id="use871"
       inkscape:label="Clip"><rect
         style="fill:#000000;fill-opacity:1;stroke:#ffffff;stroke-width:0.1260273;stroke-miterlimit:4;stroke-dasharray:none;stroke-opacity:1"
         id="rect898"
         width="7.0423493"
         height="11.619875"
         x="6.4554863"
         y="2.1281509" /></g></clipPath><clipPath
     clipPathUnits="userSpaceOnUse"
     id="clipPath882"><g
       inkscape:label="Clip"
       id="use884"><g
         style="fill:#000000;fill-opacity:1;stroke-width:0.1260273;stroke-miterlimit:4;stroke-dasharray:none"
         transform="matrix(0.95555556,0,0,1.023569,0.59990377,-0.05015844)"
         clip-path="url(#clipPath869)"
         id="g894"><g
           style="fill:#000000;fill-opacity:1;stroke-width:0.1260273;stroke-miterlimit:4;stroke-dasharray:none"
           id="g892"
           inkscape:label="Clip"><rect
             style="fill:#000000;fill-opacity:1;stroke:#ffffff;stroke-width:0.1260273;stroke-miterlimit:4;stroke-dasharray:none;stroke-opacity:1"
             id="rect890"
             width="7.0423493"
             height="11.619875"
             x="6.4554863"
             y="2.1281509" /></g></g></g></clipPath><radialGradient
     inkscape:collect="always"
     xlink:href="#linearGradient47"
     id="radialGradient875"
     gradientUnits="userSpaceOnUse"
     gradientTransform="matrix(-0.8842105,0.55789475,-0.53361418,-0.84572803,17.403278,4.8340722)"
     cx="7.824832"
     cy="4.9842148"
     fx="7.824832"
     fy="4.9842148"
     r="3.7167952" /></defs><sodipodi:namedview
   pagecolor="#ffffff"
   bordercolor="#666666"
   borderopacity="1"
   objecttolerance="10"
   gridtolerance="10"
   guidetolerance="10"
   inkscape:pageopacity="0"
   inkscape:pageshadow="2"
   inkscape:window-width="1312"
   inkscape:window-height="704"
   id="namedview5"
   showgrid="false"
   inkscape:snap-nodes="false"
   inkscape:zoom="31.949567"
   inkscape:cx="3.0097597"
   inkscape:cy="6.9975015"
   inkscape:window-x="54"
   inkscape:window-y="27"
   inkscape:window-maximized="1"
   inkscape:current-layer="Layer_1"
   inkscape:snap-bbox="false"
   inkscape:snap-global="false" />
	<path
   inkscape:connector-curvature="0"
   style="fill:#231f20;stroke-width:0.12149964"
   d="m 13.231347,15.019851 c 0.988846,0 1.789284,-0.8019 1.789284,-1.794959 V 1.7769359 c 0,-0.99306038 -0.800438,-1.79690834 -1.789284,-1.79690834 H 1.8322118 c -0.98884639,0 -1.78928283,0.80384796 -1.78928283,1.79690834 V 13.225013 c 0,0.993061 0.80043644,1.79496 1.78928283,1.79496 H 13.231347 Z"
   id="path2-3" /><path
   inkscape:connector-curvature="0"
   style="fill:#ffffff;stroke-width:0.11913925"
   d="m 1.943875,0.42324107 c -0.8033328,0 -1.45712478,0.65674253 -1.45712478,1.46370003 V 13.114014 c 0,0.806957 0.65379198,1.462744 1.45712478,1.462744 h 11.17581 c 0.804283,0 1.457125,-0.655787 1.457125,-1.462744 V 1.8870605 c 10e-7,-0.8069576 -0.652841,-1.46370011 -1.457125,-1.46370011 H 1.9433991 Z"
   id="path4" />
<circle
   id="path33"
   cx="7.6683354"
   cy="5.1407113"
   r="3.7167952"
   style="stroke-width:1.25;fill-opacity:1;fill:url(#radialGradient875)" /><path
   sodipodi:type="spiral"
   style="fill:none;fill-rule:evenodd;stroke:#000000;stroke-width:0;stroke-miterlimit:4;stroke-dasharray:none"
   id="path879"
   sodipodi:cx="7.7857084"
   sodipodi:cy="5.0624633"
   sodipodi:expansion="1"
   sodipodi:revolution="3"
   sodipodi:radius="2.554781"
   sodipodi:argument="-17.756105"
   sodipodi:t0="0"
   d="M 7.7857084,5.0624633 C 7.8445572,5.1762374 7.6613771,5.1979224 7.5966083,5.1602738 7.4210891,5.0582484 7.4676991,4.8066801 7.5900874,4.6842631 7.8090115,4.4652879 8.1707217,4.546564 8.3530087,4.7690318 8.6205222,5.0955122 8.5007995,5.5801629 8.1769504,5.8188636 7.7453105,6.1370141 7.1340462,5.9773633 6.840208,5.5515158 6.4704426,5.0156301 6.6706674,4.2762182 7.1988455,3.9278628 7.8385398,3.5059577 8.7068883,3.7470868 9.109409,4.3777898 9.5837658,5.1210516 9.301543,6.1187975 8.5681924,6.575264 7.7215101,7.1022725 6.5940731,6.7788376 6.0838077,5.9427577 5.5040117,4.9927506 5.8687372,3.735424 6.8076035,3.1714625 7.8608695,2.5387828 9.2482266,2.9448539 9.8658093,3.9865478 10.551443,5.1430255 10.103987,6.6605167 8.9594344,7.3316643" /><path
   sodipodi:type="spiral"
   style="fill:none;fill-rule:evenodd;stroke:#fb99f3;stroke-width:0.25;stroke-miterlimit:4;stroke-dasharray:none;stroke-opacity:1"
   id="path883"
   sodipodi:cx="7.2770939"
   sodipodi:cy="4.8277183"
   sodipodi:expansion="1"
   sodipodi:revolution="3.00301"
   sodipodi:radius="4.0259881"
   sodipodi:argument="-17.896456"
   sodipodi:t0="0"
   d="M 7.2770939,4.8277183 C 7.3938837,4.9921099 7.1131173,5.0662536 7.0038642,5.0218306 6.7077953,4.901447 6.725049,4.4990363 6.8888692,4.281259 7.1819049,3.8917064 7.7636396,3.9387418 8.0967828,4.2453812 8.5856839,4.6953868 8.5057926,5.4772288 8.0535434,5.9206368 7.4507663,6.5116301 6.4627651,6.3973823 5.9109456,5.7982801 5.2165372,5.0443711 5.3658103,3.8476774 6.1124197,3.1883404 7.0166636,2.3897949 8.4233525,2.5744345 9.1897014,3.4689317 10.092817,4.5230657 9.8726173,6.14051 8.8299928,7.0135554 7.6262417,8.021521 5.7975584,7.7656409 4.8180271,6.5747296 3.7050213,5.2215404 3.9966603,3.1812913 5.3359702,2.0954218 6.8384735,0.87724032 9.0905202,1.2046929 10.28262,2.6924822 c 1.323457,1.6517282 0.960152,4.1157427 -0.6761777,5.4139918 -0.019901,0.015789 -0.039951,0.031389 -0.060148,0.046798"
   transform="matrix(0.83233879,0,0,0.798968,1.3346642,1.3047198)" /><rect
   style="fill:#a8aeae;fill-opacity:1;stroke:#c6fb99;stroke-width:0;stroke-miterlimit:4;stroke-dasharray:none;stroke-opacity:1"
   id="rect889"
   width="0.7042349"
   height="4.8513961"
   x="7.3162179"
   y="8.8183823" /></svg>