<svg xmlns="http://www.w3.org/2000/svg" viewBox="0 0 30 30"><defs><style>.cls-1{fill:#ef9235;}.cls-2{fill:#fff;}</style></defs><g id="レイヤー_2" data-name="レイヤー 2"><g id="レイヤー_1-2" data-name="レイヤー 1"><rect class="cls-1" width="30" height="30" rx="5"/><path class="cls-2" d="M9.17,2.64,2.55,12.8a2.47,2.47,0,0,0,2.07,3.82H17.86a2.47,2.47,0,0,0,2.07-3.82L13.31,2.64A2.48,2.48,0,0,0,9.17,2.64Z"/><path class="cls-1" d="M8.37,9.79H14a.62.62,0,0,1,.62.62v6.36a0,0,0,0,1,0,0H7.75a0,0,0,0,1,0,0V10.41A.62.62,0,0,1,8.37,9.79Z"/><circle class="cls-2" cx="9.67" cy="25.08" r="2.47"/><circle class="cls-2" cx="13.61" cy="26.67" r="2.37"/><circle class="cls-2" cx="10.49" cy="21.83" r="1.66"/><circle class="cls-2" cx="13.93" cy="23.41" r="3.44"/><circle class="cls-2" cx="17.89" cy="25.93" r="2.72"/><circle class="cls-2" cx="18.48" cy="23.15" r="2.16"/><circle class="cls-2" cx="21.3" cy="21.43" r="2.37"/><circle class="cls-2" cx="21.54" cy="24.97" r="1.56"/><circle class="cls-2" cx="23.67" cy="22.12" r="2.17"/><circle class="cls-2" cx="23.88" cy="19.11" r="2.32"/><circle class="cls-2" cx="25.07" cy="16.64" r="1.86"/><path class="cls-2" d="M25.31,14.07l.32-3.71c0-.36-.25-.63-.55-.56s-2.57.43-2.79.49-.25.44-.1.65c0,0,2,2.91,2.24,3.26S25.27,14.62,25.31,14.07Z"/><path class="cls-2" d="M26.56,14.63l2.74-2.71a.47.47,0,0,0,0-.66s-1.9-1.12-2.26-1.32a.48.48,0,0,0-.75.33c0,.31-.44,3.92-.44,3.92A.43.43,0,0,0,26.56,14.63Z"/></g></g></svg>