<svg viewBox="0 0 30 30" xmlns="http://www.w3.org/2000/svg"><rect fill="#fff" height="29.846355" rx="4.974393" stroke-width=".994879" width="29.846355" x=".076823" y=".076822"/><rect fill="#fff" height="29.515823" rx="4.929032" stroke-width=".984833" width="29.574188" x=".212907" y=".242087"/><g stroke-width=".9"><rect fill="#ef9235" height="27" rx="4.5" width="27" x="1.5" y="1.5"/><path d="m9.753 3.876-5.958 9.144a2.223 2.223 0 0 0 1.863 3.438h11.916a2.223 2.223 0 0 0 1.863-3.438l-5.958-9.144a2.232 2.232 0 0 0 -3.726 0z" fill="#fff"/><path d="m9.033 10.311h5.067a.558.558 0 0 1 .558.558v5.724h-6.183v-5.724a.558.558 0 0 1 .558-.558z" fill="#ef9235"/><circle cx="10.203" cy="24.072001" fill="#fff" r="2.223"/><circle cx="13.749" cy="25.503" fill="#fff" r="2.133"/><circle cx="10.941" cy="21.146999" fill="#fff" r="1.494"/><circle cx="14.037001" cy="22.569" fill="#fff" r="3.096"/><circle cx="17.601" cy="24.837" fill="#fff" r="2.448"/><circle cx="18.132" cy="22.334999" fill="#fff" r="1.944"/><circle cx="20.67" cy="20.787001" fill="#fff" r="2.133"/><circle cx="20.886002" cy="23.973" fill="#fff" r="1.404"/><circle cx="22.802999" cy="21.408001" fill="#fff" r="1.953"/><circle cx="22.991999" cy="18.699001" fill="#fff" r="2.088"/><circle cx="24.063" cy="16.476" fill="#fff" r="1.674"/><path d="m24.279 14.163.288-3.339c0-.324-.225-.567-.495-.504s-2.313.387-2.511.441-.225.396-.09.585c0 0 1.8 2.619 2.016 2.934s.756.378.792-.117z" fill="#fff"/><path d="m25.404 14.667 2.466-2.439a.423.423 0 0 0 0-.594s-1.71-1.008-2.034-1.188a.432.432 0 0 0 -.675.297c0 .279-.396 3.528-.396 3.528a.387.387 0 0 0 .639.396z" fill="#fff"/></g></svg>