<svg enable-background="new 0 0 800 800" height="800" viewBox="0 0 800 800" width="800" xmlns="http://www.w3.org/2000/svg"><path d="m788 708c0 44-36 80-80 80h-616c-44 0-80-36-80-80v-616c0-44 36-80 80-80h616c44 0 80 36 80 80z" fill="#ff8c00"/><path d="m788 708c0 44-36 80-80 80h-616c-44 0-80-36-80-80v-616c0-44 36-80 80-80h616c44 0 80 36 80 80z" fill="none" stroke="#fff" stroke-miterlimit="10" stroke-width="24"/><path d="m352.36471 425.73307c-.39839-16.17479-4.34386-171.24052-4.57035-177.55998-.41601-11.60733-9.0135-20.88494-19.79675-21.12826-8.13304-.18351-128.38053-3.99756-131.26516 4.43279-16.22858 3.38308-99.47781 119.14688-99.084212 152.41114l1.649385 139.39496c.116249 9.82454 4.030417 10.06807 14.687417 19.92836 10.658 9.86214 25.69258 9.99332 36.31258 9.99332h520c22.856 0 31.70484-3.51296 31.77753-26.32467l.278-87.24764c-.40439-4.75657-5.15646-13.80653-14.84432-13.79762-83.75439.077-313.0625.0256-335.14412-.10237z" fill="#fff" stroke-width=".961894"/><ellipse cx="245.27498" cy="612.80548" rx="61.586975" ry="60.420692" style="opacity:.99;fill:none;stroke:#fff;stroke-width:50.005001;stroke-linecap:round;stroke-linejoin:round"/><ellipse cx="551.23199" cy="612.80548" rx="61.586975" ry="60.420692" style="opacity:.99;fill:none;stroke:#fff;stroke-width:50.005001;stroke-linecap:round;stroke-linejoin:round"/><rect fill="#fff" height="262.80237" opacity=".99" ry="34.43578" width="308.02844" x="387.01108" y="120.41188"/></svg>