<?xml version="1.0" encoding="UTF-8" standalone="no"?>
<svg
   xmlns:dc="http://purl.org/dc/elements/1.1/"
   xmlns:cc="http://creativecommons.org/ns#"
   xmlns:rdf="http://www.w3.org/1999/02/22-rdf-syntax-ns#"
   xmlns:svg="http://www.w3.org/2000/svg"
   xmlns="http://www.w3.org/2000/svg"
   xmlns:sodipodi="http://sodipodi.sourceforge.net/DTD/sodipodi-0.dtd"
   xmlns:inkscape="http://www.inkscape.org/namespaces/inkscape"
   version="1.1"
   id="Layer_1"
   x="0px"
   y="0px"
   width="12"
   height="12"
   viewBox="0 0 15 15"
   style="enable-background:new 0 0 15 15;"
   xml:space="preserve"
   sodipodi:docname="deli.svg"
   inkscape:version="0.92.4 (5da689c313, 2019-01-14)"><metadata
   id="metadata9"><rdf:RDF><cc:Work
       rdf:about=""><dc:format>image/svg+xml</dc:format><dc:type
         rdf:resource="http://purl.org/dc/dcmitype/StillImage" /><dc:title></dc:title></cc:Work></rdf:RDF></metadata><defs
   id="defs7"><clipPath
     clipPathUnits="userSpaceOnUse"
     id="clipPath869"><g
       style="fill:#000000;fill-opacity:1;stroke-width:0.1260273;stroke-miterlimit:4;stroke-dasharray:none"
       id="use871"
       inkscape:label="Clip"><rect
         style="fill:#000000;fill-opacity:1;stroke:#ffffff;stroke-width:0.1260273;stroke-miterlimit:4;stroke-dasharray:none;stroke-opacity:1"
         id="rect898"
         width="7.0423493"
         height="11.619875"
         x="6.4554863"
         y="2.1281509" /></g></clipPath><clipPath
     clipPathUnits="userSpaceOnUse"
     id="clipPath882"><g
       inkscape:label="Clip"
       id="use884"><g
         style="fill:#000000;fill-opacity:1;stroke-width:0.1260273;stroke-miterlimit:4;stroke-dasharray:none"
         transform="matrix(0.95555556,0,0,1.023569,0.59990377,-0.05015844)"
         clip-path="url(#clipPath869)"
         id="g894"><g
           style="fill:#000000;fill-opacity:1;stroke-width:0.1260273;stroke-miterlimit:4;stroke-dasharray:none"
           id="g892"
           inkscape:label="Clip"><rect
             style="fill:#000000;fill-opacity:1;stroke:#ffffff;stroke-width:0.1260273;stroke-miterlimit:4;stroke-dasharray:none;stroke-opacity:1"
             id="rect890"
             width="7.0423493"
             height="11.619875"
             x="6.4554863"
             y="2.1281509" /></g></g></g></clipPath></defs><sodipodi:namedview
   pagecolor="#ffffff"
   bordercolor="#666666"
   borderopacity="1"
   objecttolerance="10"
   gridtolerance="10"
   guidetolerance="10"
   inkscape:pageopacity="0"
   inkscape:pageshadow="2"
   inkscape:window-width="1312"
   inkscape:window-height="704"
   id="namedview5"
   showgrid="false"
   inkscape:snap-nodes="false"
   inkscape:zoom="31.949567"
   inkscape:cx="3.0097597"
   inkscape:cy="6.9975015"
   inkscape:window-x="54"
   inkscape:window-y="27"
   inkscape:window-maximized="1"
   inkscape:current-layer="Layer_1"
   inkscape:snap-bbox="false"
   inkscape:snap-global="false" />
	<path
   inkscape:connector-curvature="0"
   style="fill:#231f20;stroke-width:0.12149964"
   d="m 13.231347,15.019851 c 0.988846,0 1.789284,-0.8019 1.789284,-1.794959 V 1.7769359 c 0,-0.99306038 -0.800438,-1.79690834 -1.789284,-1.79690834 H 1.8322118 c -0.98884639,0 -1.78928283,0.80384796 -1.78928283,1.79690834 V 13.225013 c 0,0.993061 0.80043644,1.79496 1.78928283,1.79496 H 13.231347 Z"
   id="path2-3" /><path
   inkscape:connector-curvature="0"
   style="fill:#ffffff;stroke-width:0.11913925"
   d="m 1.943875,0.42324107 c -0.8033328,0 -1.45712478,0.65674253 -1.45712478,1.46370003 V 13.114014 c 0,0.806957 0.65379198,1.462744 1.45712478,1.462744 h 11.17581 c 0.804283,0 1.457125,-0.655787 1.457125,-1.462744 V 1.8870605 c 10e-7,-0.8069576 -0.652841,-1.46370011 -1.457125,-1.46370011 H 1.9433991 Z"
   id="path4" />
<path
   sodipodi:type="spiral"
   style="fill:none;fill-rule:evenodd;stroke:#000000;stroke-width:0;stroke-miterlimit:4;stroke-dasharray:none"
   id="path879"
   sodipodi:cx="7.7857084"
   sodipodi:cy="5.0624633"
   sodipodi:expansion="1"
   sodipodi:revolution="3"
   sodipodi:radius="2.554781"
   sodipodi:argument="-17.756105"
   sodipodi:t0="0"
   d="M 7.7857084,5.0624633 C 7.8445572,5.1762374 7.6613771,5.1979224 7.5966083,5.1602738 7.4210891,5.0582484 7.4676991,4.8066801 7.5900874,4.6842631 7.8090115,4.4652879 8.1707217,4.546564 8.3530087,4.7690318 8.6205222,5.0955122 8.5007995,5.5801629 8.1769504,5.8188636 7.7453105,6.1370141 7.1340462,5.9773633 6.840208,5.5515158 6.4704426,5.0156301 6.6706674,4.2762182 7.1988455,3.9278628 7.8385398,3.5059577 8.7068883,3.7470868 9.109409,4.3777898 9.5837658,5.1210516 9.301543,6.1187975 8.5681924,6.575264 7.7215101,7.1022725 6.5940731,6.7788376 6.0838077,5.9427577 5.5040117,4.9927506 5.8687372,3.735424 6.8076035,3.1714625 7.8608695,2.5387828 9.2482266,2.9448539 9.8658093,3.9865478 10.551443,5.1430255 10.103987,6.6605167 8.9594344,7.3316643" /><path
   inkscape:connector-curvature="0"
   style="fill:#dbdbdb;fill-opacity:1;stroke-width:0.06656045"
   d="M 7.0593289,3.0189977 C 6.6322883,2.9573917 6.0601436,3.2604591 5.7841743,3.694452 L 1.9446559,9.7325269 C 1.6686866,10.166521 1.7919621,10.569351 2.2190027,10.630956 l 5.9409065,0.857047 c 0.4275461,0.06168 0.9988591,-0.240949 1.2748282,-0.674938 L 13.274214,4.7750522 c 0.27597,-0.4339929 0.153527,-0.8372635 -0.27402,-0.898942 L 7.0590351,3.0190252 Z"
   id="path4-3" /><path
   inkscape:connector-curvature="0"
   style="fill:#dbdbdb;fill-opacity:1;stroke-width:0.06656045"
   d="M 7.1181173,3.997004 C 6.6910766,3.935398 6.118932,4.2384654 5.8429626,4.6724583 L 2.0034443,10.710533 c -0.2759693,0.433994 -0.1526938,0.836824 0.2743468,0.89843 l 5.9409065,0.857047 c 0.427546,0.06168 0.9988591,-0.240949 1.2748281,-0.674938 L 13.333003,5.7530585 C 13.608973,5.3190656 13.48653,4.915795 13.058983,4.8541165 L 7.1178235,3.9970315 Z"
   id="path4-3-3" /><path
   inkscape:connector-curvature="0"
   style="fill:#dbdbdb;fill-opacity:1;stroke-width:0.06656045"
   d="M 7.0789936,3.4492658 C 6.6519526,3.3876598 6.0798079,3.6907272 5.8038385,4.1247201 L 1.9643202,10.162795 c -0.2759693,0.433994 -0.1526938,0.836824 0.2743468,0.898429 l 5.9409066,0.857047 c 0.427546,0.06168 0.998859,-0.240949 1.274828,-0.674938 L 13.293879,5.2053203 c 0.27597,-0.4339929 0.153527,-0.8372635 -0.27402,-0.898942 L 7.0786996,3.4492933 Z"
   id="path4-3-5" /><rect
   style="fill:#cea21d;fill-opacity:1;stroke:#c6fb99;stroke-width:0;stroke-miterlimit:4;stroke-dasharray:none;stroke-opacity:1"
   id="rect981"
   width="1.9562075"
   height="2.3474493"
   x="7.0869942"
   y="0.53720301"
   ry="0.68467283"
   transform="rotate(21.877645)" /><rect
   style="fill:#e0b121;fill-opacity:1;stroke:#c6fb99;stroke-width:0;stroke-miterlimit:4;stroke-dasharray:none;stroke-opacity:1"
   id="rect981-6"
   width="1.9562075"
   height="2.3474493"
   x="8.139883"
   y="0.1144219"
   ry="0.68467283"
   transform="rotate(21.877645)" /><rect
   style="fill:#ba921a;fill-opacity:1;stroke:#c6fb99;stroke-width:0;stroke-miterlimit:4;stroke-dasharray:none;stroke-opacity:1"
   id="rect981-2"
   width="1.9562075"
   height="2.3474493"
   x="6.8246617"
   y="1.756964"
   ry="0.68467283"
   transform="rotate(21.877645)" /><rect
   style="fill:#d3a61e;fill-opacity:1;stroke:#c6fb99;stroke-width:0;stroke-miterlimit:4;stroke-dasharray:none;stroke-opacity:1"
   id="rect981-9"
   width="1.9562075"
   height="2.3474493"
   x="8.2700529"
   y="1.4716988"
   ry="0.68467283"
   transform="rotate(21.877645)" /><path
   sodipodi:type="star"
   style="fill:#7cd31e;fill-opacity:1;stroke:#c6fb99;stroke-width:0;stroke-miterlimit:4;stroke-dasharray:none;stroke-opacity:1"
   id="path1010"
   sodipodi:sides="5"
   sodipodi:cx="10.328778"
   sodipodi:cy="4.6320977"
   sodipodi:r1="1.1918429"
   sodipodi:r2="0.85065028"
   sodipodi:arg1="0.40489179"
   sodipodi:arg2="1.0803307"
   inkscape:flatsided="false"
   inkscape:rounded="0"
   inkscape:randomized="0"
   d="M 11.424255,5.1015876 10.729466,5.3824679 10.220788,5.8190381 9.7389531,5.2450513 9.1665599,4.8961773 9.5635588,4.2605537 9.7184784,3.6083675 l 0.7271936,0.1811498 0.668139,-0.054199 0.05243,0.7475804 z"
   inkscape:transform-center-x="0.033370931"
   inkscape:transform-center-y="0.081605085" /><path
   sodipodi:type="star"
   style="fill:#7cca27;fill-opacity:1;stroke:#c6fb99;stroke-width:0;stroke-miterlimit:4;stroke-dasharray:none;stroke-opacity:1"
   id="path1010-1"
   sodipodi:sides="5"
   sodipodi:cx="11.418502"
   sodipodi:cy="4.941734"
   sodipodi:r1="1.1918429"
   sodipodi:r2="0.85065019"
   sodipodi:arg1="0.40489179"
   sodipodi:arg2="1.0803307"
   inkscape:flatsided="false"
   inkscape:rounded="0"
   inkscape:randomized="0"
   d="m 12.513978,5.4112238 -0.694789,0.2808802 -0.508678,0.4365703 -0.481834,-0.5739869 -0.572393,-0.348874 0.396998,-0.6356236 0.15492,-0.6521862 0.727193,0.1811499 0.668139,-0.054199 0.05243,0.7475804 z"
   inkscape:transform-center-x="0.033370931"
   inkscape:transform-center-y="0.081605085" /><path
   sodipodi:type="star"
   style="fill:#85e023;fill-opacity:1;stroke:#c6fb99;stroke-width:0;stroke-miterlimit:4;stroke-dasharray:none;stroke-opacity:1"
   id="path1010-2"
   sodipodi:sides="5"
   sodipodi:cx="9.7424431"
   sodipodi:cy="5.6629038"
   sodipodi:r1="1.1918429"
   sodipodi:r2="0.85065019"
   sodipodi:arg1="0.40489179"
   sodipodi:arg2="1.0803307"
   inkscape:flatsided="false"
   inkscape:rounded="0"
   inkscape:randomized="0"
   d="M 10.83792,6.1323937 10.143131,6.4132739 9.6344525,6.8498442 9.1526179,6.2758573 8.5802247,5.9269834 8.9772236,5.2913598 9.1321432,4.6391735 l 0.7271934,0.1811499 0.6681384,-0.054199 0.05243,0.7475804 z"
   inkscape:transform-center-x="0.033370931"
   inkscape:transform-center-y="0.081605085" /><path
   sodipodi:type="star"
   style="fill:#7cd31e;fill-opacity:1;stroke:#c6fb99;stroke-width:0;stroke-miterlimit:4;stroke-dasharray:none;stroke-opacity:1"
   id="path1010-7"
   sodipodi:sides="5"
   sodipodi:cx="11.03354"
   sodipodi:cy="6.0150213"
   sodipodi:r1="1.1918429"
   sodipodi:r2="0.85065019"
   sodipodi:arg1="0.40489179"
   sodipodi:arg2="1.0803307"
   inkscape:flatsided="false"
   inkscape:rounded="0"
   inkscape:randomized="0"
   d="M 12.129016,6.4845113 11.434227,6.7653914 10.925549,7.2019617 10.443715,6.6279748 9.8713214,6.2791009 10.26832,5.6434773 l 0.15492,-0.6521862 0.727193,0.1811499 0.668139,-0.054199 0.05243,0.7475804 z"
   inkscape:transform-center-x="-0.073051007"
   inkscape:transform-center-y="0.042074118"
   transform="rotate(-16.638879,10.423349,5.5158846)" /><path
   sodipodi:type="star"
   style="fill:#97e442;fill-opacity:1;stroke:#c6fb99;stroke-width:0;stroke-miterlimit:4;stroke-dasharray:none;stroke-opacity:1"
   id="path1010-0"
   sodipodi:sides="5"
   sodipodi:cx="9.3120773"
   sodipodi:cy="6.5236353"
   sodipodi:r1="1.1918429"
   sodipodi:r2="0.85065019"
   sodipodi:arg1="0.40489179"
   sodipodi:arg2="1.0803307"
   inkscape:flatsided="false"
   inkscape:rounded="0"
   inkscape:randomized="0"
   d="M 10.407554,6.9931253 9.712765,7.2740055 9.2040869,7.7105758 8.7222524,7.1365889 8.1498592,6.787715 8.5468581,6.1520914 8.7017777,5.4999051 9.4289711,5.681055 10.09711,5.6268557 l 0.05243,0.7475804 z"
   inkscape:transform-center-x="0.033370931"
   inkscape:transform-center-y="0.081605085" /><path
   sodipodi:type="star"
   style="fill:#7cc22f;fill-opacity:1;stroke:#c6fb99;stroke-width:0;stroke-miterlimit:4;stroke-dasharray:none;stroke-opacity:1"
   id="path1010-9"
   sodipodi:sides="5"
   sodipodi:cx="10.603175"
   sodipodi:cy="6.7975044"
   sodipodi:r1="1.1918429"
   sodipodi:r2="0.85065019"
   sodipodi:arg1="0.40489179"
   sodipodi:arg2="1.0803307"
   inkscape:flatsided="false"
   inkscape:rounded="0"
   inkscape:randomized="0"
   d="M 11.698652,7.2669944 11.003863,7.5478746 10.495185,7.9844448 10.01335,7.4104579 9.4409568,7.061584 9.8379557,6.4259604 9.9928753,5.7737742 l 0.7271937,0.1811499 0.668138,-0.054199 0.05243,0.7475804 z"
   inkscape:transform-center-x="0.033370931"
   inkscape:transform-center-y="0.081605085" /><rect
   style="fill:#ffffff;fill-opacity:1;stroke:#c6fb99;stroke-width:0;stroke-miterlimit:4;stroke-dasharray:none;stroke-opacity:1"
   id="rect1053"
   width="6.4789348"
   height="4.6244888"
   x="8.6791115"
   y="6.619885"
   ry="0.74933815"
   transform="matrix(0.99005302,0.14069477,-0.59177973,0.80609972,0,0)" /></svg>