<svg enable-background="new 0 0 15 15" height="12" viewBox="0 0 15 15" width="12" xmlns="http://www.w3.org/2000/svg" xmlns:xlink="http://www.w3.org/1999/xlink"><linearGradient id="a"><stop offset="0" stop-color="#f1b119"/><stop offset="1" stop-color="#c28e09"/></linearGradient><radialGradient id="b" cx="5.653441" cy="10.618094" gradientTransform="matrix(1.3877206 0 0 .80902393 -.365098 .759474)" gradientUnits="userSpaceOnUse" r="4.542216"><stop offset="0" stop-color="#ecb32d"/><stop offset="1" stop-color="#c28e09"/></radialGradient><radialGradient id="c" cx="4.929645" cy="7.922057" gradientTransform="matrix(1.3877206 0 0 .79870453 -.365098 .212833)" gradientUnits="userSpaceOnUse" r="4.600902" xlink:href="#a"/><radialGradient id="d" cx="4.929645" cy="7.922057" gradientTransform="matrix(1.3877206 0 0 .79870453 -.46291 -1.602045)" gradientUnits="userSpaceOnUse" r="4.600902" xlink:href="#a"/><path d="m13.231347 15.019851c.988846 0 1.789284-.8019 1.789284-1.794959v-11.4479561c0-.99306038-.800438-1.79690834-1.789284-1.79690834h-11.3991352c-.98884639 0-1.78928283.80384796-1.78928283 1.79690834v11.4480771c0 .993061.80043644 1.79496 1.78928283 1.79496h11.3991352z" fill="#231f20" stroke-width=".1215"/><path d="m1.943875.42324107c-.8033328 0-1.45712478.65674253-1.45712478 1.46370003v11.2270729c0 .806957.65379198 1.462744 1.45712478 1.462744h11.17581c.804283 0 1.457125-.655787 1.457125-1.462744v-11.2269535c.000001-.8069576-.652841-1.46370011-1.457125-1.46370011h-11.1762859z" fill="#fff" stroke-width=".119139"/><ellipse cx="7.480299" cy="9.349767" fill="url(#b)" rx="6.220901" ry="3.600964" stroke="#fff" stroke-width=".155985"/><ellipse cx="7.561739" cy="8.280356" fill="#fff" rx="6.243742" ry="3.597109"/><ellipse cx="7.453154" cy="7.512408" fill="url(#c)" rx="6.301812" ry="3.600491" stroke="#fff" stroke-width=".156986"/><ellipse cx="7.463928" cy="6.465478" fill="#fff" rx="6.243742" ry="3.597109"/><ellipse cx="7.355342" cy="5.69753" fill="url(#d)" rx="6.301812" ry="3.600491" stroke="#fff" stroke-width=".156986"/></svg>