<svg enable-background="new 0 0 15 15" height="12" viewBox="0 0 15 15" width="12" xmlns="http://www.w3.org/2000/svg"><path d="m13.231347 15.019851c.988846 0 1.789284-.8019 1.789284-1.794959v-11.4479561c0-.99306038-.800438-1.79690834-1.789284-1.79690834h-11.3991352c-.98884639 0-1.78928283.80384796-1.78928283 1.79690834v11.4480771c0 .993061.80043644 1.79496 1.78928283 1.79496h11.3991352z" fill="#231f20" stroke-width=".1215"/><path d="m1.943875.42324107c-.8033328 0-1.45712478.65674253-1.45712478 1.46370003v11.2270729c0 .806957.65379198 1.462744 1.45712478 1.462744h11.17581c.804283 0 1.457125-.655787 1.457125-1.462744v-11.2269535c.000001-.8069576-.652841-1.46370011-1.457125-1.46370011h-11.1762859z" fill="#fff" stroke-width=".119139"/><path d="m800 7546.7082c0-2334 4-7143.7082 9-7172.7082 32-167 126-288 268-346l58-23 1725-3c1930-3 1813-7 1927 67 66 42 107 90 147 170 59 116 56 3135.7082 56 7294.7082 1.4819 4322.2348-755.2144 4731.5738-2147.9115 4795.2328-1381.8506-121.987-2034.91514-510.105-2042.0885-4782.2328z" transform="matrix(.00106711 0 0 -.00095104 4.30302 13.638838)"/><ellipse cx="4.146242" cy="6.574755" fill="#2b0000" opacity=".02" rx=".326797" ry=".377859"/><g fill="#090000"><path d="m4.0946165 6.4003413 6.8329765.00317c.885625 1.4269296.906169 1.7381361.197903 3.2271243h-7.1218787c-.7972051-1.5686181-.7897624-1.7603353.0909992-3.2302943z" opacity=".99"/><path d="m4.330065 4.236111h6.29085v1.041667h-6.29085z" opacity=".99"/><path d="m2.777778 7.56536h9.293301v1.000817h-9.293301z" opacity=".99"/></g><ellipse cx="7.404003" cy="8.729575" fill="#fff" opacity=".99" rx="1.828023" ry="1.756536"/><ellipse cx="7.393791" cy="8.739787" opacity=".99" rx="1.409314" ry="1.378677"/><ellipse cx="7.393791" cy="8.70915" opacity=".99" rx=".245098" ry=".224673"/><path d="m6.862745 1.335784h1.000817v1.776961h-1.000817z" opacity=".99"/></svg>