<svg enable-background="new 0 0 15 15" height="12" viewBox="0 0 15 15" width="12" xmlns="http://www.w3.org/2000/svg"><path d="m13.231347 15.019851c.988846 0 1.789284-.8019 1.789284-1.794959v-11.4479561c0-.99306038-.800438-1.79690834-1.789284-1.79690834h-11.3991352c-.98884639 0-1.78928283.80384796-1.78928283 1.79690834v11.4480771c0 .993061.80043644 1.79496 1.78928283 1.79496h11.3991352z" fill="#231f20" stroke-width=".1215"/><path d="m1.943875.42324107c-.8033328 0-1.45712478.65674253-1.45712478 1.46370003v11.2270729c0 .806957.65379198 1.462744 1.45712478 1.462744h11.17581c.804283 0 1.457125-.655787 1.457125-1.462744v-11.2269535c.000001-.8069576-.652841-1.46370011-1.457125-1.46370011h-11.1762859z" fill="#fff" stroke-width=".119139"/><path d="m2065 12794c-500-81-835-470-837-974-1-226 80-430 230-577 61-61 63-63 40-72-260-99-625-353-927-646-267-259-429-479-526-715-36-85-40-104-40-180 0-73 4-93 29-144 61-126 203-215 342-216 56 0 140 26 196 61 62 40 106 89 215 244 345 487 648 740 1114 929 104 42 391 136 416 136 1 0 3-151 3-335 0-260-3-336-12-339-241-70-507-215-722-395-439-367-702-830-771-1354-13-104-15-564-15-3956 0-2334 4-3858 9-3887 32-167 126-288 268-346l58-23 1725-3c1930-3 1813-7 1927 67 66 42 107 90 147 170 59 116 56-150 56 4009 0 2600-3 3854-10 3920-53 483-243 888-585 1241-272 281-562 464-883 557-10 3-12 84-10 381 2 208 6 377 11 376 4-2 340-3 747-3h740v-157-158l1578-239c867-131 1690-256 1827-277 138-21 253-39 258-39 4 0 7 567 7 1260v1261l-32-6c-25-4-1452-212-1888-275-96-14-992-144-1310-191-151-22-312-45-357-51l-83-11v-173-174h-745-745v270 270h-214-215l-6 48c-10 77-52 199-94 270-123 209-326 360-570 424-75 19-280 32-346 22zm210-519c83-22 147-60 206-122 195-206 138-544-114-668-246-121-534 8-602 270-39 152 7 308 123 417 108 101 248 139 387 103z" transform="matrix(.00106711 0 0 -.00095104 2.914131 13.618413)"/></svg>