<svg height="250" viewBox="0 0 250 250" width="250" xmlns="http://www.w3.org/2000/svg"><path d="m221.7135 250.74427c16.64146 0 30.11217-13.35307 30.11217-29.88808v-190.622339c0-16.536008-13.47071-29.92114503-30.11217-29.92114503h-191.838021c-16.641512 0-30.11216921 13.38513703-30.11216921 29.92114503v190.624109c0 16.5358 13.47065721 29.88865 30.11216921 29.88865h191.838021z" fill="#fff" stroke-width="2.0339"/><path d="m33.690912 13.518759c-13.126878 0-23.8101831 10.370316-23.8101831 23.112833v177.281338c0 12.74184 10.6833051 23.09719 23.8101831 23.09719h182.618218c13.14234 0 23.81014-10.35535 23.81014-23.09719v-177.279265c0-12.742567-10.66775-23.112685-23.81014-23.112685h-182.625996z" fill="#d38d5f" stroke-width="1.913751"/><path d="m66.758034 204.49108-38.823772-111.754105c14.117736-25.023819 41.764966-33.554667 82.941698-25.592542 21.17661-21.611481 45.00028-28.436159 71.47104-20.474035l36.23359 104.298272 2.59018 7.45584c-34.11785-7.96214-57.94153-1.13746-71.47103 20.47401-40.00026-7.96212-68.23573.56874-84.706421 25.59256l-37.059057-111.754105m82.941698-25.592542 33.52963 107.488677" fill="#fff" stroke="#000001" stroke-opacity=".597015" stroke-width="4"/></svg>