<svg viewBox="0 0 30 30" xmlns="http://www.w3.org/2000/svg"><rect fill="#ef9235" height="29" rx="4.5" width="29" x=".5" y=".5"/><path d="m25 1a4 4 0 0 1 4 4v20a4 4 0 0 1 -4 4h-20a4 4 0 0 1 -4-4v-20a4 4 0 0 1 4-4zm0-1h-20a5 5 0 0 0 -5 5v20a5 5 0 0 0 5 5h20a5 5 0 0 0 5-5v-20a5 5 0 0 0 -5-5z" fill="#fff"/><path d="m6.56 23.15a1.45 1.45 0 0 1 -1.8-1s-2.14-7.15-2.14-7.15 0 0 0-.06a1.16 1.16 0 0 1 .21-.94l.06-.07 8.5-8.8a1.4 1.4 0 0 1 1.61-.33l6.21 3.05a1.14 1.14 0 0 1 .61.57l2.18 7.28a1.44 1.44 0 0 1 -1 1.8l-14.37 5.63z" fill="#fff" stroke="#fff" stroke-miterlimit="10" stroke-width="1.5"/><path d="m19.14 8.88a.62.62 0 0 0 -.29-.31l-6.2-3a.61.61 0 0 0 -.68.12l-8.5 8.81a.39.39 0 0 0 -.06.3 0 0 0 0 1 0 0l.86 2.9.49 1.62.76 2.57a.64.64 0 0 0 .79.43l14.49-5.6a.63.63 0 0 0 .43-.79l-.67-2.26-.43-1.45-1-3.34z" fill="#fff"/><path d="m20.8 16.72-14.47 5.65a.64.64 0 0 1 -.79-.43l-2.13-7.18 15.73-5.88 2.09 7a.63.63 0 0 1 -.43.84z" fill="#ef9235"/><path d="m4.78 19.37c-.12-.37-.58-1.95-.49-1.62s.6.2.6.2l15.24-5.73.43 1.45-15.17 6a.43.43 0 0 1 -.61-.3z" fill="#fff"/><path d="m12 5.65-8.5 8.81c-.18.23 0 .75.53.59l14.73-5.37a.6.6 0 0 0 .09-1.11l-6.2-3a.61.61 0 0 0 -.65.08z" fill="#fff"/><path d="m11.64 9.75a4.41 4.41 0 0 1 -.6 0 2.37 2.37 0 0 1 -1.53-.85 1.75 1.75 0 0 1 -.33-1.37l.07-.56c.09-.78.18-1.59.32-2.39a1.88 1.88 0 0 1 1.92-1.58 2.15 2.15 0 0 1 1.39.5 15.21 15.21 0 0 1 2.12 2.34 2.13 2.13 0 0 1 -.4 3 4.88 4.88 0 0 1 -1.71.75 5.06 5.06 0 0 1 -1.22.17z" fill="#ef9235"/><g fill="#fff"><path d="m11.49 3.38a1.72 1.72 0 0 1 1.13.4 15.18 15.18 0 0 1 2 2.28 1.76 1.76 0 0 1 -.32 2.46 4.38 4.38 0 0 1 -1.56.68 4.67 4.67 0 0 1 -1.13.16 3.62 3.62 0 0 1 -.54 0 1.6 1.6 0 0 1 -1.5-1.81c.11-.94.21-2 .38-2.95a1.49 1.49 0 0 1 1.54-1.22m0-.79a2.26 2.26 0 0 0 -2.31 1.88c-.18.82-.18 1.63-.32 2.42l-.07.57a2.08 2.08 0 0 0 .41 1.64 2.7 2.7 0 0 0 1.82 1 4.12 4.12 0 0 0 .62 0 5.44 5.44 0 0 0 1.3-.18 5.29 5.29 0 0 0 1.82-.78 2.56 2.56 0 0 0 .54-3.55 15.76 15.76 0 0 0 -2.15-2.39 2.52 2.52 0 0 0 -1.66-.61z"/><path d="m10.84 7.33-.15.67a.27.27 0 0 0 .31.3.26.26 0 0 0 .22-.37l-.26-.61a.05.05 0 0 0 -.12.01z"/><path d="m13.38 6.58.48.46a.27.27 0 0 1 -.06.43.27.27 0 0 1 -.39-.19l-.12-.66a.05.05 0 0 1 .09-.04z"/><path d="m12.3 4.7.48.46a.27.27 0 0 1 -.06.43.27.27 0 0 1 -.4-.19l-.11-.65a.06.06 0 0 1 .09-.05z"/><path d="m11.85 6.05.38.54a.28.28 0 0 1 -.15.42.28.28 0 0 1 -.35-.27v-.66a.06.06 0 0 1 .12-.03z"/><path d="m10.83 5.2.19.63a.27.27 0 0 1 -.27.35.27.27 0 0 1 -.25-.36l.22-.62a.06.06 0 0 1 .11 0z"/></g><path d="m25.22 13.67a4 4 0 0 1 -1.61-.33 4.15 4.15 0 0 1 -2.21-5.43 4.15 4.15 0 1 1 3.82 5.76z" fill="#ef9235"/><path d="m22.77 19.47a4.15 4.15 0 0 1 0-8.3 4 4 0 0 1 1.61.33 4.15 4.15 0 0 1 -1.61 8z" fill="#ef9235"/><path d="m20.31 25.3a4.15 4.15 0 0 1 0-8.3 4.07 4.07 0 0 1 1.61.33 4.15 4.15 0 0 1 -1.61 8z" fill="#ef9235"/><circle cx="25.22" cy="9.52" fill="#fff" r="3.15"/><circle cx="22.77" cy="15.32" fill="#fff" r="3.15"/><circle cx="20.31" cy="21.15" fill="#fff" r="3.15"/><path d="m19.6 22.82-2 4.73" fill="none" stroke="#fff" stroke-linecap="round" stroke-miterlimit="10" stroke-width=".89"/><path d="m25.6 8.63 1.42-3.35" fill="none" stroke="#fff" stroke-linecap="round" stroke-miterlimit="10" stroke-width=".89"/></svg>