<svg enable-background="new -0.258 -0.548 123.547 123.539" height="10" viewBox="-.258 -.548 123.547 123.539" width="10" xmlns="http://www.w3.org/2000/svg"><path d="m109.09 123.36c8.156 0 14.758-6.586 14.758-14.742v-94.022c0-8.156-6.602-14.758-14.758-14.758h-94.02c-8.156 0-14.758 6.602-14.758 14.758v94.023c0 8.156 6.602 14.742 14.758 14.742h94.02z" fill="#231f20"/><path d="m15.07 2.34c-6.758 0-12.258 5.5-12.258 12.258v94.023c0 6.758 5.5 12.25 12.258 12.25h94.016c6.766 0 12.258-5.492 12.258-12.25v-94.022c0-6.758-5.492-12.258-12.258-12.258h-94.02z" fill="#fff"/><g fill="#231f20"><path d="m56.711 43.301c0 3.258-2.969 6.734-6.812 6.734v55.031c0 7.805-10.656 7.805-10.656 0v-55.035c-3.75 0-7.008-2.891-7.008-7.227v-28.890463c0-2.633 4.352247-4.0432046 4.288739-1.199914l.08062 22.221753 2.965501.806233 3.007645-.806232c.228829-6.953971-.348577-15.35916-.119751-22.313131.083239-2.52963 4.295608-2.786246 4.295608-.067246v22.461l3.297518.725609 2.707335-.725609-.322577-22.393754c-.035893-2.491741 4.275362-1.191891 4.275362 1.488109v29.186645z"/><path d="m90.094 19.582v85.445c0 7.641-10.672 7.531-10.672 0v-33.240014l-5.688-.644986v-51.563c0-10.2182895 16.36-11.992 16.36 0z"/></g></svg>