<svg viewBox="0 0 700 700" xmlns="http://www.w3.org/2000/svg"><path d="m616.37 700a83.49 83.49 0 0 0 83.63-83.52v-532.85a83.6 83.6 0 0 0 -83.63-83.63h-532.74a83.6 83.6 0 0 0 -83.63 83.63v532.85a83.49 83.49 0 0 0 83.63 83.52z"/><path d="m88.85 20.65a68.22 68.22 0 0 0 -68.11 68.12v522.54a68.17 68.17 0 0 0 68.12 68.07h522.31a68.17 68.17 0 0 0 68.12-68.07v-522.54a68.22 68.22 0 0 0 -68.12-68.12z" fill="#fff"/><path d="m350 63.9-261.53 168.3v403.9h129.28v-192.15h32.11a16.2 16.2 0 0 0 12.8-6.27l27.81-35.87 29 65.15-82.71 169.14h31.59a19.8 19.8 0 0 0 17.8-11.1l71.29-145.65 6.12 78.09a19.8 19.8 0 0 0 19.74 18.25h123.36l-14.84-29a19.8 19.8 0 0 0 -17.53-10.59h-72.68l-6.5-83a19.77 19.77 0 0 0 -2.28-7.81l-29.65-65h33.28l31.86 48.44a16.2 16.2 0 0 0 27.07-17.8l-36.66-55.74a16.2 16.2 0 0 0 -13.54-7.3h-106a16.2 16.2 0 0 0 -12.8 6.27l-44.5 57.39h-24.14v-173h264.5v290.14a28.29 28.29 0 0 1 17.14 14v.09l21.21 41.46h-38.35v51.86h129.28v-403.9z"/><circle cx="293.16" cy="309.26" r="33.36"/></svg>