<svg height="48" viewBox="0 0 12.7 12.7" width="48" xmlns="http://www.w3.org/2000/svg"><g transform="matrix(.80339141 0 0 1 -.960498 -282.45748)"><path d="m15.144948 295.15146c1.04677 0 1.894095-.67862 1.894095-1.51895v-9.68766c0-.84038-.847325-1.52063-1.894095-1.52063h-12.066852c-1.0467695 0-1.8940924.68025-1.8940924 1.52063v9.68775c0 .84037.8473229 1.51898 1.8940924 1.51898h12.066852z" fill="#fff" stroke-width=".114996"/><path d="m3.4143251 282.96463c-.8084771 0-1.4664555.53494-1.4664555 1.19223v9.14472c0 .65726.6579784 1.19143 1.4664555 1.19143h11.2473729c.809432 0 1.466456-.53417 1.466456-1.19143v-9.14461c.000001-.6573-.657022-1.19222-1.466456-1.19222h-11.2478519z" fill="#f55" stroke-width=".107868"/><path d="m4.136227 283.73724h9.674514v10.036187h-9.674514z" fill="#fff" opacity=".99"/><path d="m5.621942 284.53397h6.644971v6.130163h-6.644971z" fill="#ff8080" opacity=".99"/><path d="m5.621942 291.51385h5.292354v1.368512h-5.292354z" fill="#ff8080" opacity=".99"/><path d="m11.325961 292.25613h.945985v.649835h-.945985z" fill="#ff8080" opacity=".99"/><g fill="#fff" fill-opacity=".972093"><path d="m4.917562 287.63232h7.608142v.523052h-7.608142z"/><path d="m-9.187508-290.215h.98334v1.691068h-.98334z" transform="matrix(-.99999735 -.00230099 .0050319 -.99998734 0 0)"/><path d="m-11.002481-290.21469h.954187v1.455151h-.954187z" transform="matrix(-.99999792 -.00204048 .00567434 -.9999839 0 0)"/><path d="m-13.455021-290.22073h.895881v1.00917h-.895881z" transform="matrix(-.99999886 -.00150718 .00768204 -.99997049 0 0)"/><path d="m-9.56348-286.96408h.895881v1.156417h-.895881z" transform="matrix(-.99999851 -.0017271 .00670388 -.99997753 0 0)"/><path d="m-11.49641-286.96384h.983339v1.156422h-.983339z" transform="matrix(-.99999876 -.00157349 .00735829 -.99997293 0 0)"/><path d="m-12.777334-286.94891h.98334v1.667476h-.98334z" transform="matrix(-.99999743 -.00226889 .00510309 -.99998698 0 0)"/><path d="m-291.63242-97.15966h.703469v1.825081h-.703469z" transform="matrix(-.35193146 -.93602577 .97909217 -.2034171 0 0)"/></g></g></svg>